HIERARCHY
ROOT hip
{
	OFFSET 0.000000 0.000000 0.000000 
	CHANNELS 6 Xposition Yposition Zposition Xrotation Zrotation Yrotation
	JOINT abdomen
	{
		OFFSET 0.000000 3.402643 0.000000 
		CHANNELS 3 Xrotation Zrotation Yrotation
		JOINT chest
		{
			OFFSET 0.000000 8.438565 -0.680529 
			CHANNELS 3 Xrotation Zrotation Yrotation
			JOINT neck
			{
				OFFSET 0.000000 10.207942 -0.272212 
				CHANNELS 3 Xrotation Zrotation Yrotation
				JOINT head
				{
					OFFSET 0.000000 3.130431 0.000000 
					CHANNELS 3 Xrotation Zrotation Yrotation
					End Site
					{
						OFFSET 0.000000 3.130435 0.000000 
					}
				}
			}
			JOINT lCollar
			{
				OFFSET 3.470700 6.669187 -0.816635 
				CHANNELS 3 Yrotation Zrotation Xrotation
				JOINT lShldr
				{
					OFFSET 3.198488 0.000000 0.000000 
					CHANNELS 3 Zrotation Yrotation Xrotation
					JOINT lForeArm
					{
						OFFSET 10.139888 0.000000 0.000000 
						CHANNELS 3 Yrotation Zrotation Xrotation
						JOINT lHand
						{
							OFFSET 8.370511 0.000000 0.000000 
							CHANNELS 3 Zrotation Yrotation Xrotation
							End Site
							{
								OFFSET 4.083176 0.000000 0.000000 
							}
						}
					}
				}
			}
			JOINT rCollar
			{
				OFFSET -3.470700 6.669187 -0.816635 
				CHANNELS 3 Yrotation Zrotation Xrotation
				JOINT rShldr
				{
					OFFSET -3.198488 0.000000 0.000000 
					CHANNELS 3 Zrotation Yrotation Xrotation
					JOINT rForeArm
					{
						OFFSET -10.139888 0.000000 0.000000 
						CHANNELS 3 Yrotation Zrotation Xrotation
						JOINT rHand
						{
							OFFSET -8.370511 0.000000 0.000000 
							CHANNELS 3 Zrotation Yrotation Xrotation
							End Site
							{
								OFFSET -4.083176 0.000000 0.000000 
							}
						}
					}
				}
			}
		}
	}
	JOINT lThigh
	{
		OFFSET 5.308129 -1.633274 1.361059 
		CHANNELS 3 Xrotation Zrotation Yrotation
		JOINT lShin
		{
			OFFSET -2.041588 -20.007561 0.000000 
			CHANNELS 3 Xrotation Zrotation Yrotation
			JOINT lFoot
			{
				OFFSET 0.000000 -19.190928 -1.224953 
				CHANNELS 3 Xrotation Yrotation Zrotation
				End Site
				{
					OFFSET 0.000000 -2.449906 4.627600 
				}
			}
		}
	}
	JOINT rThigh
	{
		OFFSET -5.308129 -1.633274 1.361059 
		CHANNELS 3 Xrotation Zrotation Yrotation
		JOINT rShin
		{
			OFFSET 2.041588 -20.007561 0.000000 
			CHANNELS 3 Xrotation Zrotation Yrotation
			JOINT rFoot
			{
				OFFSET 0.000000 -19.190928 -1.224953 
				CHANNELS 3 Xrotation Yrotation Zrotation
				End Site
				{
					OFFSET 0.000000 -2.449906 4.627600 
				}
			}
		}
	}
}
MOTION
Frames: 6
Frame Time: 0.033333
24.145174 36.226948 56.504765 -1.729879 2.274355 -14.775649 -25.458981 0.000000 -0.009766 50.181416 -3.410460 -9.116141 -5.580060 4.596250 8.468271 -14.092810 -3.289217 13.578467 -20.014965 9.240955 9.286490 21.584398 -65.720779 -50.034107 -2.768744 -2.103359 -73.533676 -1.581143 -9.579638 4.397916 28.134703 -10.461994 16.125219 83.158676 102.470535 65.591133 2.457205 3.438546 -81.487854 -8.963768 18.657101 2.461380 -68.600975 3.202718 6.759291 81.280373 1.251734 2.539923 -9.511958 0.687912 -1.688247 23.367476 -19.618484 -10.700162 56.318825 -10.294347 4.565199 -1.914061 -2.400013 29.302433 
24.278252 35.289997 56.889233 0.479283 3.242074 -13.956760 -25.458981 0.000000 -0.009766 52.140724 -3.608100 -11.838101 -13.770097 7.809542 7.876287 -11.775625 -3.545177 15.718504 -23.053179 1.833926 13.392120 4.951282 -64.027977 -27.847366 -3.419996 -2.140137 -87.143410 -2.578262 5.147181 4.350001 29.192047 -4.073519 16.398184 55.359093 93.515564 44.109272 2.796871 3.473232 -87.503944 -8.280348 4.055602 1.450589 -74.739113 2.782189 8.515028 86.552521 1.944011 1.812819 -10.469900 0.957287 -0.809792 24.881250 -19.794310 -9.889995 54.515881 -10.666040 8.126362 -5.398982 -3.704415 30.651926 
24.559824 34.484859 57.158150 2.320082 3.990877 -14.261981 -25.458981 0.000000 -0.009766 53.439159 -3.377639 -13.446315 -18.724049 8.506682 8.661533 -10.278017 -3.336145 16.563215 -23.343279 -3.192740 14.907651 -3.725201 -62.854420 -16.891699 -3.509118 -2.500520 -89.306343 0.623877 8.235882 3.034021 29.333158 -1.494650 16.860741 -42.007423 93.335739 -52.260635 3.032274 3.313967 -88.032906 -8.491373 -4.221350 1.659831 -80.467140 2.871268 9.749327 91.182381 2.754059 2.287271 -10.735638 1.070725 -1.727378 24.654438 -20.408075 -7.711953 54.578033 -10.169143 9.007941 -9.792203 -4.423702 30.371849 
24.726221 34.068256 57.224472 2.851318 4.681723 -14.444797 -25.458981 0.000000 -0.009766 53.351574 -3.452084 -13.851614 -19.275375 8.501118 8.491451 -9.153208 -3.426442 16.461182 -22.749449 -3.635762 14.876657 -4.591879 -63.563545 -16.217808 -3.891869 -2.191161 -93.280167 1.156534 9.813148 3.268094 28.592068 -2.163336 17.358007 -40.643913 93.836525 -51.449184 2.853622 3.394198 -84.713959 -7.784010 -6.092166 0.433854 -82.909317 2.382868 10.661163 92.987030 3.251938 2.925114 -10.422357 1.362406 -2.127391 24.193836 -21.197247 -7.912606 55.937988 -9.921712 6.476620 -11.930362 -3.952418 29.623856 
24.845427 33.740749 57.237892 2.862911 5.101081 -14.900760 -25.458981 0.000000 -0.009766 53.490688 -3.894779 -14.205620 -19.053862 8.094099 8.903396 -9.602097 -2.840027 16.516216 -22.530518 -3.879117 14.794543 -4.482822 -63.646477 -15.775600 -4.021357 -2.034477 -94.394417 1.502652 11.575727 2.681510 28.598425 -2.103696 17.359919 -40.404335 93.895012 -51.624813 2.818983 3.390045 -84.161079 -7.903208 -7.905683 0.866867 -84.040634 2.451122 11.117428 94.258026 3.388140 3.309613 -10.905901 1.435149 -1.785803 23.773972 -21.617788 -8.043318 57.370960 -9.788676 4.142301 -13.555878 -3.852715 28.320841 
24.971140 33.494205 57.191109 2.962632 5.451732 -15.245042 -25.458981 0.000000 -0.009766 53.366276 -4.053227 -14.201801 -19.439621 7.821046 8.731814 -9.142765 -2.996931 16.517260 -22.634022 -3.887509 14.786903 -3.117049 -63.580761 -17.087006 -4.085394 -1.966764 -95.432152 1.368716 12.798302 2.410545 28.751551 -2.597174 17.792938 -32.022846 93.076134 -43.245510 2.708410 3.417079 -83.023483 -7.589968 -9.091678 0.052969 -85.340736 2.490087 11.727821 95.159691 3.651653 3.860507 -10.323225 1.390145 -2.092751 23.038416 -22.084091 -7.759151 58.836918 -9.583858 1.914206 -14.891204 -3.774107 27.808836 
